<?xml version="1.0" standalone="no"?>
<!DOCTYPE svg PUBLIC "-//W3C//DTD SVG 20010904//EN"
 "http://www.w3.org/TR/2001/REC-SVG-20010904/DTD/svg10.dtd">
<svg version="1.0" xmlns="http://www.w3.org/2000/svg"
 width="1280.000000pt" height="640.000000pt" viewBox="0 0 1280.000000 640.000000"
 preserveAspectRatio="xMidYMid meet">
<g transform="translate(0.000000,640.000000) scale(0.100000,-0.100000)"
fill="#000000" stroke="none">
<path d="M395 4645 c14 -86 48 -202 75 -257 l29 -58 -49 0 c-26 0 -81 -6 -122
-14 -75 -15 -297 -82 -311 -95 -4 -4 12 -13 35 -20 97 -28 245 -90 448 -188
l215 -104 -132 -44 c-73 -24 -140 -48 -149 -53 -14 -8 -1 -19 71 -61 100 -59
288 -154 388 -196 l68 -28 -68 -32 c-91 -42 -206 -116 -196 -125 6 -6 184 -67
403 -137 8 -3 -29 -16 -83 -29 -54 -13 -110 -30 -124 -38 l-26 -13 71 -43
c133 -78 343 -160 522 -201 121 -28 119 -26 64 -60 -58 -37 -86 -61 -125 -111
l-29 -36 57 -17 c85 -25 233 -51 370 -66 l122 -13 -29 -33 c-35 -40 -57 -79
-61 -113 l-4 -25 150 -17 c209 -24 554 -41 649 -33 l80 7 -37 -41 c-38 -42
-77 -110 -77 -134 0 -19 71 -27 253 -27 82 0 147 -3 145 -7 -30 -58 -50 -109
-51 -131 -2 -32 20 -39 140 -41 l82 -1 -30 -57 c-30 -61 -46 -149 -31 -171 7
-11 22 -11 73 -2 127 22 282 67 392 114 l37 16 -30 -54 -31 -55 38 -7 c65 -13
224 -8 293 10 36 9 89 28 119 42 30 13 55 23 57 21 2 -1 -14 -38 -35 -81 l-38
-79 86 6 c170 11 397 89 562 192 l36 24 7 -46 c3 -25 6 -68 6 -96 l0 -50 79
76 c43 42 82 77 86 77 3 0 -8 -25 -25 -56 l-32 -55 38 6 c241 39 431 126 629
287 42 35 88 72 102 83 24 19 25 19 38 1 13 -17 16 -17 63 -2 27 9 70 30 96
46 l46 30 0 -40 c0 -22 2 -40 4 -40 12 0 247 136 278 161 l37 29 36 -31 c63
-55 81 -23 44 76 -53 142 -177 282 -533 604 -572 515 -861 746 -1151 921 -38
23 -86 52 -105 65 -49 33 -119 47 -174 35 -76 -17 -375 -58 -536 -74 -720 -71
-1462 -32 -2095 110 -523 118 -818 259 -1083 519 l-123 121 6 -41z"/>
<path d="M12285 4565 c-210 -211 -433 -337 -794 -445 -657 -197 -1547 -266
-2381 -184 -161 16 -460 57 -536 74 -55 12 -125 -2 -174 -35 -19 -13 -66 -42
-105 -65 -290 -175 -579 -406 -1151 -921 -356 -322 -480 -462 -533 -604 -37
-99 -19 -131 44 -76 l36 31 37 -29 c31 -25 266 -161 278 -161 2 0 4 18 4 40
l0 40 46 -30 c26 -16 69 -37 96 -46 47 -15 50 -15 63 2 13 18 14 18 38 -1 14
-11 60 -48 102 -83 198 -161 388 -248 629 -287 l38 -6 -32 55 c-17 31 -28 56
-25 56 4 0 43 -35 86 -77 l79 -76 0 50 c0 28 3 71 6 96 l7 46 36 -24 c165
-103 392 -181 562 -192 l86 -6 -38 79 c-21 43 -37 80 -35 81 2 2 27 -8 57 -21
30 -14 83 -33 119 -42 69 -18 228 -23 293 -10 l38 7 -31 55 -30 54 37 -16
c110 -47 265 -92 392 -114 51 -9 66 -9 73 2 15 22 -1 110 -31 171 l-30 57 82
1 c120 2 142 9 140 41 -1 22 -21 73 -51 131 -2 4 63 7 145 7 182 0 253 8 253
27 0 24 -39 92 -77 134 l-37 41 80 -7 c95 -8 440 9 649 33 l150 17 -4 25 c-4
34 -26 73 -61 113 l-29 33 122 13 c137 15 285 41 370 66 l57 17 -29 36 c-39
50 -67 74 -125 111 -55 34 -57 32 64 60 179 41 389 123 522 201 l71 43 -26 13
c-14 8 -70 25 -124 38 -54 13 -91 26 -83 29 219 70 397 131 403 137 10 9 -105
83 -196 125 l-68 32 68 28 c100 42 288 137 388 196 72 42 85 53 71 61 -9 5
-76 29 -149 53 l-132 44 215 104 c203 98 351 160 448 188 23 7 39 16 35 20
-14 13 -236 80 -311 95 -41 8 -96 14 -122 14 l-49 0 29 58 c16 32 37 94 48
137 21 82 36 166 30 163 -1 -1 -57 -56 -123 -123z"/>
</g>
</svg>
